<svg xmlns="http://www.w3.org/2000/svg" focusable="false" viewBox="0 0 24 24" color="var(--token-e59a380a-257f-4a9c-b4d5-79e578382472, rgb(27, 43, 39)) /* {&quot;name&quot;:&quot;Future black&quot;} */" style="user-select: none; width: 100%; height: 100%; display: inline-block; fill: var(--token-e59a380a-257f-4a9c-b4d5-79e578382472, rgb(27, 43, 39)) ; flex-shrink: 0; cursor: auto;"><path d="M19 2h-4.18C14.4.84 13.3 0 12 0c-1.3 0-2.4.84-2.82 2H5c-1.1 0-2 .9-2 2v16c0 1.1.9 2 2 2h14c1.1 0 2-.9 2-2V4c0-1.1-.9-2-2-2zm-7 0c.55 0 1 .45 1 1s-.45 1-1 1-1-.45-1-1 .45-1 1-1zm7 18H5V4h2v3h10V4h2v16z"></path></svg>