<svg xmlns="http://www.w3.org/2000/svg" focusable="false" viewBox="0 0 24 24" color="var(--token-e59a380a-257f-4a9c-b4d5-79e578382472, rgb(27, 43, 39)) /* {&quot;name&quot;:&quot;Future black&quot;} */" style="user-select: none; width: 100%; height: 100%; display: inline-block; fill: var(--token-e59a380a-257f-4a9c-b4d5-79e578382472, rgb(27, 43, 39)) ; flex-shrink: 0; cursor: auto;"><path d="M18 8h-1V6c0-2.76-2.24-5-5-5S7 3.24 7 6v2H6c-1.1 0-2 .9-2 2v10c0 1.1.9 2 2 2h12c1.1 0 2-.9 2-2V10c0-1.1-.9-2-2-2zm-6 9c-1.1 0-2-.9-2-2s.9-2 2-2 2 .9 2 2-.9 2-2 2zm3.1-9H8.9V6c0-1.71 1.39-3.1 3.1-3.1 1.71 0 3.1 1.39 3.1 3.1v2z"></path></svg>