<svg xmlns="http://www.w3.org/2000/svg" focusable="false" viewBox="0 0 24 24" color="var(--token-e59a380a-257f-4a9c-b4d5-79e578382472, rgb(27, 43, 39)) /* {&quot;name&quot;:&quot;Future black&quot;} */" style="user-select: none; width: 100%; height: 100%; display: inline-block; fill: var(--token-e59a380a-257f-4a9c-b4d5-79e578382472, rgb(27, 43, 39)) ; flex-shrink: 0; cursor: auto;"><path d="M7 9H2V7h5v2zm0 3H2v2h5v-2zm13.59 7l-3.83-3.83c-.8.52-1.74.83-2.76.83-2.76 0-5-2.24-5-5s2.24-5 5-5 5 2.24 5 5c0 1.02-.31 1.96-.83 2.75L22 17.59 20.59 19zM17 11c0-1.65-1.35-3-3-3s-3 1.35-3 3 1.35 3 3 3 3-1.35 3-3zM2 19h10v-2H2v2z"></path></svg>