<svg
        xmlns="http://www.w3.org/2000/svg"
        viewBox="0 0 336 336"
        width="336"
        height="336"
        preserveAspectRatio="xMidYMid slice"
        style="
            width: 100%;
            height: 100%;
            transform: translate3d(0px, 0px, 0px);
          "
>
    <defs>
        <clipPath id="__lottie_element_37">
            <rect width="336" height="336" x="0" y="0" />
        </clipPath>
    </defs>
    <g clip-path="url(#__lottie_element_37)">
        <g
                transform="matrix(3,0,0,3,-0.7519989013671875,-0.7480010986328125)"
                opacity="1"
                style="display: block"
        >
            <g opacity="1" transform="matrix(1,0,0,1,56.25,56.25)">
                <path
                        fill="rgb(229,229,229)"
                        fill-opacity="1"
                        d=" M0,56 C30.8439998626709,56 56,30.8439998626709 56,0 C56,-30.8439998626709 30.8439998626709,-56 0,-56 C-30.843000411987305,-56 -56,-30.8439998626709 -56,0 C-56,30.8439998626709 -30.843000411987305,56 0,56z"
                />
            </g>
        </g>
        <g
                transform="matrix(3,0,0,3,34.38800048828125,178.97999572753906)"
                opacity="1"
                style="display: block"
        >
            <g
                    opacity="1"
                    transform="matrix(1,0,0,1,44.5369987487793,20.777999877929688)"
            >
                <path
                        fill="rgb(255,199,55)"
                        fill-opacity="1"
                        d=" M-2.0439999103546143,19.701000213623047 C-2.0439999103546143,19.701000213623047 -41.07400131225586,-10.694999694824219 -41.07400131225586,-10.694999694824219 C-43.084999084472656,-12.071999549865723 -44.28799819946289,-14.352999687194824 -44.28799819946289,-16.790000915527344 C-44.28799819946289,-16.790000915527344 -44.28799819946289,-18.476999282836914 -44.28799819946289,-18.476999282836914 C-44.28799819946289,-19.610000610351562 -43.369998931884766,-20.527000427246094 -42.237998962402344,-20.527000427246094 C-42.237998962402344,-20.527000427246094 42.237998962402344,-20.527000427246094 42.237998962402344,-20.527000427246094 C43.369998931884766,-20.527000427246094 44.28799819946289,-19.610000610351562 44.28799819946289,-18.476999282836914 C44.28799819946289,-18.476999282836914 44.28799819946289,-16.790000915527344 44.28799819946289,-16.790000915527344 C44.28799819946289,-14.352999687194824 43.084999084472656,-12.071999549865723 41.073001861572266,-10.694999694824219 C41.073001861572266,-10.694999694824219 2.0490000247955322,19.701000213623047 2.0490000247955322,19.701000213623047 C0.8080000281333923,20.527999877929688 -0.8040000200271606,20.527999877929688 -2.0439999103546143,19.701000213623047z"
                />
            </g>
        </g>
        <g
                transform="matrix(3,0,0,-3,34.38800048828125,192.4560089111328)"
                opacity="1"
                style="display: block"
        >
            <g
                    opacity="1"
                    transform="matrix(1,0,0,1,44.5369987487793,20.777999877929688)"
            >
                <path
                        fill="rgb(255,199,55)"
                        fill-opacity="1"
                        d=" M-2.0439999103546143,19.701000213623047 C-2.0439999103546143,19.701000213623047 -41.07400131225586,-10.694999694824219 -41.07400131225586,-10.694999694824219 C-43.084999084472656,-12.071999549865723 -44.28799819946289,-14.352999687194824 -44.28799819946289,-16.790000915527344 C-44.28799819946289,-16.790000915527344 -44.28799819946289,-18.476999282836914 -44.28799819946289,-18.476999282836914 C-44.28799819946289,-19.610000610351562 -43.369998931884766,-20.527000427246094 -42.237998962402344,-20.527000427246094 C-42.237998962402344,-20.527000427246094 42.237998962402344,-20.527000427246094 42.237998962402344,-20.527000427246094 C43.369998931884766,-20.527000427246094 44.28799819946289,-19.610000610351562 44.28799819946289,-18.476999282836914 C44.28799819946289,-18.476999282836914 44.28799819946289,-16.790000915527344 44.28799819946289,-16.790000915527344 C44.28799819946289,-14.352999687194824 43.084999084472656,-12.071999549865723 41.073001861572266,-10.694999694824219 C41.073001861572266,-10.694999694824219 2.0490000247955322,19.701000213623047 2.0490000247955322,19.701000213623047 C0.8080000281333923,20.527999877929688 -0.8040000200271606,20.527999877929688 -2.0439999103546143,19.701000213623047z"
                />
            </g>
        </g>
        <g
                transform="matrix(3,0,0,3,67.60299682617188,85.3675537109375)"
                opacity="1"
                style="display: block"
        >
            <g
                    opacity="1"
                    transform="matrix(1,0,0,1,33.46500015258789,44.5369987487793)"
            >
                <path
                        fill="rgb(255,255,255)"
                        fill-opacity="1"
                        d=" M-25.834999084472656,-44.2869987487793 C-29.893999099731445,-44.2869987487793 -33.21500015258789,-40.965999603271484 -33.21500015258789,-36.90599822998047 C-33.21500015258789,-36.90599822998047 -33.2197380065918,28.026691436767578 -33.2197380065918,28.026691436767578 C-25.286739349365234,33.89768981933594 -15.761739730834961,37.72569274902344 -5.428739547729492,38.72669219970703 C-5.428739547729492,38.72669219970703 5.421260356903076,38.72669219970703 5.421260356903076,38.72669219970703 C15.753260612487793,37.72569274902344 25.278352737426758,33.89768981933594 33.21035385131836,28.026691436767578 C33.21035385131836,28.026691436767578 33.214908599853516,-25.880464553833008 33.214908599853516,-25.880464553833008 C33.214908599853516,-25.880464553833008 14.762999534606934,-44.2869987487793 14.762999534606934,-44.2869987487793 C14.762999534606934,-44.2869987487793 -25.834999084472656,-44.2869987487793 -25.834999084472656,-44.2869987487793z"
                />
                <g opacity="1" transform="matrix(1,0,0,1,0,0)" />
            </g>
        </g>
        <g
                transform="matrix(0,0,0,3,90.25,185.01255798339844)"
                opacity="1"
                style="display: block"
        >
            <g
                    opacity="1"
                    transform="matrix(1,0,0,1,15.012999534606934,2.0950000286102295)"
            >
                <path
                        fill="rgb(87,103,117)"
                        fill-opacity="1"
                        d=" M-14.76200008392334,-1.8450000286102295 C-14.76200008392334,-1.8450000286102295 14.76200008392334,-1.8450000286102295 14.76200008392334,-1.8450000286102295 C14.76200008392334,-1.8450000286102295 14.76200008392334,1.8450000286102295 14.76200008392334,1.8450000286102295 C14.76200008392334,1.8450000286102295 -14.76200008392334,1.8450000286102295 -14.76200008392334,1.8450000286102295 C-14.76200008392334,1.8450000286102295 -14.76200008392334,-1.8450000286102295 -14.76200008392334,-1.8450000286102295z"
                />
            </g>
        </g>
        <g
                transform="matrix(0,0,0,3,90.25,162.87255859375)"
                opacity="1"
                style="display: block"
        >
            <g
                    opacity="1"
                    transform="matrix(1,0,0,1,22.393999099731445,2.0959999561309814)"
            >
                <path
                        fill="rgb(87,103,117)"
                        fill-opacity="1"
                        d=" M-22.143999099731445,-1.8459999561309814 C-22.143999099731445,-1.8459999561309814 22.143999099731445,-1.8459999561309814 22.143999099731445,-1.8459999561309814 C22.143999099731445,-1.8459999561309814 22.143999099731445,1.8459999561309814 22.143999099731445,1.8459999561309814 C22.143999099731445,1.8459999561309814 -22.143999099731445,1.8459999561309814 -22.143999099731445,1.8459999561309814 C-22.143999099731445,1.8459999561309814 -22.143999099731445,-1.8459999561309814 -22.143999099731445,-1.8459999561309814z"
                />
            </g>
        </g>
        <g
                transform="matrix(0,0,0,3,90.25,140.7265625)"
                opacity="1"
                style="display: block"
        >
            <g
                    opacity="1"
                    transform="matrix(1,0,0,1,18.702999114990234,2.0950000286102295)"
            >
                <path
                        fill="rgb(87,103,117)"
                        fill-opacity="1"
                        d=" M-18.452999114990234,-1.8450000286102295 C-18.452999114990234,-1.8450000286102295 18.452999114990234,-1.8450000286102295 18.452999114990234,-1.8450000286102295 C18.452999114990234,-1.8450000286102295 18.452999114990234,1.8450000286102295 18.452999114990234,1.8450000286102295 C18.452999114990234,1.8450000286102295 -18.452999114990234,1.8450000286102295 -18.452999114990234,1.8450000286102295 C-18.452999114990234,1.8450000286102295 -18.452999114990234,-1.8450000286102295 -18.452999114990234,-1.8450000286102295z"
                />
            </g>
        </g>
        <g
                transform="matrix(3,0,0,3,211.5369873046875,85.3675537109375)"
                opacity="1"
                style="display: block"
        >
            <g
                    opacity="1"
                    transform="matrix(1,0,0,1,9.47599983215332,9.47700023651123)"
            >
                <path
                        fill="rgb(199,204,209)"
                        fill-opacity="1"
                        d=" M-9.22700023651123,1.8459999561309814 C-9.22700023651123,3.822999954223633 -8.4350004196167,5.623000144958496 -7.1579999923706055,6.952000141143799 C-5.815000057220459,8.35099983215332 -3.9260001182556152,9.22700023651123 -1.843999981880188,9.22700023651123 C-1.843999981880188,9.22700023651123 9.22700023651123,9.22700023651123 9.22700023651123,9.22700023651123 C9.22700023651123,9.22700023651123 -9.22700023651123,-9.22700023651123 -9.22700023651123,-9.22700023651123 C-9.22700023651123,-9.22700023651123 -9.22700023651123,1.8459999561309814 -9.22700023651123,1.8459999561309814z"
                />
                <g opacity="1" transform="matrix(1,0,0,1,0,0)" />
            </g>
        </g>
        <g
                transform="matrix(3,0,0,3,34.38800048828125,190.52099609375)"
                opacity="1"
                style="display: block"
        >
            <g
                    opacity="1"
                    transform="matrix(1,0,0,1,44.5369987487793,24.23900032043457)"
            >
                <path
                        fill="rgb(255,128,8)"
                        fill-opacity="1"
                        d=" M1.8600000143051147,0.7599999904632568 C0.7129999995231628,1.4320000410079956 -0.7129999995231628,1.4320000410079956 -1.8609999418258667,0.7599999904632568 C-1.8609999418258667,0.7599999904632568 -44.2869987487793,-23.98900032043457 -44.2869987487793,-23.98900032043457 C-44.2869987487793,-23.98900032043457 -44.2869987487793,2.4570000171661377 -44.2869987487793,2.4570000171661377 C-35.07400131225586,14.352999687194824 -21.18899917602539,22.461999893188477 -5.425000190734863,23.98900032043457 C-5.425000190734863,23.98900032043457 5.423999786376953,23.98900032043457 5.423999786376953,23.98900032043457 C21.187999725341797,22.461999893188477 35.07400131225586,14.352999687194824 44.28799819946289,2.4570000171661377 C44.28799819946289,2.4570000171661377 44.28799819946289,-23.98900032043457 44.28799819946289,-23.98900032043457 C44.28799819946289,-23.98900032043457 1.8600000143051147,0.7599999904632568 1.8600000143051147,0.7599999904632568z"
                />
                <g opacity="1" transform="matrix(1,0,0,1,0,0)" />
            </g>
        </g>
        <g
                transform="matrix(3,0,0,3,53.10099792480469,223.7419891357422)"
                opacity="1"
                style="display: block"
        >
            <g
                    opacity="1"
                    transform="matrix(1,0,0,1,38.29800033569336,18.702999114990234)"
            >
                <path
                        fill="rgb(255,99,0)"
                        fill-opacity="1"
                        d=" M-38.04800033569336,3.742000102996826 C-29.292999267578125,11.868000030517578 -17.95199966430664,17.23900032043457 -5.423999786376953,18.45199966430664 C-5.423999786376953,18.45199966430664 5.426000118255615,18.45199966430664 5.426000118255615,18.45199966430664 C17.954999923706055,17.23900032043457 29.29599952697754,11.868000030517578 38.04899978637695,3.742000102996826 C38.04899978637695,3.742000102996826 0.0010000000474974513,-18.45199966430664 0.0010000000474974513,-18.45199966430664 C0.0010000000474974513,-18.45199966430664 -38.04800033569336,3.742000102996826 -38.04800033569336,3.742000102996826z"
                />
                <g opacity="1" transform="matrix(1,0,0,1,0,0)" />
            </g>
        </g>
        <g
                transform="matrix(3,0,0,-2.9999964237213135,34.38800048828125,192.45599365234375)"
                opacity="1"
                style="display: none"
        >
            <g
                    opacity="1"
                    transform="matrix(1,0,0,1,44.5369987487793,20.777999877929688)"
            >
                <path
                        fill="rgb(255,199,55)"
                        fill-opacity="1"
                        d=" M-2.0439999103546143,19.701000213623047 C-2.0439999103546143,19.701000213623047 -41.07400131225586,-10.694999694824219 -41.07400131225586,-10.694999694824219 C-43.084999084472656,-12.071999549865723 -44.28799819946289,-14.352999687194824 -44.28799819946289,-16.790000915527344 C-44.28799819946289,-16.790000915527344 -44.28799819946289,-18.476999282836914 -44.28799819946289,-18.476999282836914 C-44.28799819946289,-19.610000610351562 -43.369998931884766,-20.527000427246094 -42.237998962402344,-20.527000427246094 C-42.237998962402344,-20.527000427246094 42.237998962402344,-20.527000427246094 42.237998962402344,-20.527000427246094 C43.369998931884766,-20.527000427246094 44.28799819946289,-19.610000610351562 44.28799819946289,-18.476999282836914 C44.28799819946289,-18.476999282836914 44.28799819946289,-16.790000915527344 44.28799819946289,-16.790000915527344 C44.28799819946289,-14.352999687194824 43.084999084472656,-12.071999549865723 41.073001861572266,-10.694999694824219 C41.073001861572266,-10.694999694824219 2.0490000247955322,19.701000213623047 2.0490000247955322,19.701000213623047 C0.8080000281333923,20.527999877929688 -0.8040000200271606,20.527999877929688 -2.0439999103546143,19.701000213623047z"
                />
            </g>
        </g>
    </g>
</svg>
