<svg xmlns="http://www.w3.org/2000/svg" focusable="false" viewBox="0 0 24 24" color="var(--token-be259c21-734d-46c3-93ab-fe4dedcea7b1, rgb(27, 43, 39)) /* {&quot;name&quot;:&quot;Future black&quot;} */" style="user-select: none; width: 100%; height: 100%; display: inline-block; fill: var(--token-be259c21-734d-46c3-93ab-fe4dedcea7b1, rgb(27, 43, 39)) ; flex-shrink: 0; cursor: auto;"><path d="M12 2C6.48 2 2 6.48 2 12s4.48 10 10 10 10-4.48 10-10S17.52 2 12 2zm0 3c1.66 0 3 1.34 3 3s-1.34 3-3 3-3-1.34-3-3 1.34-3 3-3zm0 14.2c-2.5 0-4.71-1.28-6-3.22.03-1.99 4-3.08 6-3.08 1.99 0 5.97 1.09 6 3.08-1.29 1.94-3.5 3.22-6 3.22z"></path></svg>